<?xml version="1.0" encoding="UTF-8" standalone="no"?>
<!-- Created with Inkscape (http://www.inkscape.org/) -->

<svg
   width="400"
   height="400"
   viewBox="0 0 105.83333 105.83333"
   version="1.1"
   id="svg1"
   xml:space="preserve"
   xmlns:inkscape="http://www.inkscape.org/namespaces/inkscape"
   xmlns:sodipodi="http://sodipodi.sourceforge.net/DTD/sodipodi-0.dtd"
   xmlns="http://www.w3.org/2000/svg"
   xmlns:svg="http://www.w3.org/2000/svg"><sodipodi:namedview
     id="namedview1"
     pagecolor="#ffffff"
     bordercolor="#666666"
     borderopacity="1.0"
     inkscape:showpageshadow="2"
     inkscape:pageopacity="0.0"
     inkscape:pagecheckerboard="0"
     inkscape:deskcolor="#d1d1d1"
     inkscape:document-units="px" /><defs
     id="defs1" /><g
     inkscape:label="Layer 1"
     inkscape:groupmode="layer"
     id="layer1"><g
       id="g1"
       transform="matrix(0.66501101,0,0,0.66501101,-80.937376,-85.238321)"
       style="fill:#ffca3a;fill-opacity:1"><path
         d="m 159.63211,168.38047 c -1.7723,0.63795 -3.51354,1.35914 -5.21789,2.16116 -2.79595,1.42461 -5.47564,3.06672 -8.01431,4.91117 -2.53875,1.84439 -4.92864,3.88545 -7.1476,6.1043 -2.21885,2.21895 -4.2599,4.60885 -6.1043,7.14761 -1.84445,2.53867 -3.48656,5.21836 -4.91116,8.0143 -1.42459,2.79576 -2.6273,5.69917 -3.59702,8.68336 -0.96969,2.98445 -1.70336,6.0405 -2.19423,9.13991 -0.49083,3.09942 -0.73735,6.23264 -0.73727,9.37067 -4e-5,3.13781 0.24648,6.27078 0.73727,9.36997 0.49087,3.09941 1.22454,6.15547 2.19423,9.13993 0.96968,2.98442 2.1724,5.88806 3.59702,8.68404 1.4246,2.79595 3.06671,5.47565 4.91116,8.01432 1.84442,2.5385 3.88548,4.92817 6.1043,7.14689 2.21893,2.21909 4.60883,4.26039 7.1476,6.10501 2.53867,1.84444 5.21836,3.48656 8.01431,4.91116 2.79599,1.42462 5.69963,2.62733 8.68405,3.59702 0.67343,0.17403 1.34983,0.33633 2.02891,0.48682 1.83896,0.536 3.70258,0.98346 5.58441,1.34087 h 21.79385 c 0.50077,-0.1134 1.00007,-0.23324 1.49776,-0.35948 v -22.18429 h -9.60775 c -0.81129,0.10727 -1.62594,0.18757 -2.44257,0.24061 -0.81663,-0.0531 -1.63128,-0.13328 -2.44256,-0.24061 -1.58897,-0.0532 -3.17282,-0.20923 -4.74162,-0.46713 -2.36588,-0.47063 -4.67981,-1.17258 -6.90841,-2.09573 -2.22855,-0.92303 -4.36104,-2.06279 -6.36671,-3.40285 -2.0058,-1.34013 -3.87509,-2.87411 -5.58089,-4.57982 -1.7057,-1.7058 -3.23968,-3.57509 -4.57981,-5.58089 -1.3403,-2.00564 -2.4803,-4.13812 -3.40356,-6.3667 -0.92314,-2.22861 -1.6251,-4.54254 -2.09573,-6.90842 -0.47043,-2.36602 -0.70724,-4.77255 -0.70702,-7.18488 -1.7e-4,-2.4121 0.23664,-4.81839 0.70702,-7.18418 0.47063,-2.36589 1.17259,-4.67981 2.09573,-6.90841 0.92322,-2.22883 2.06322,-4.36155 3.40356,-6.36741 1.34016,-2.00556 2.87414,-3.8746 4.57981,-5.5802 1.7058,-1.70569 3.57509,-3.23968 5.58089,-4.5798 1.75009,-1.1362 3.59357,-2.12161 5.51055,-2.94557 z"
         style="fill:#ffffff;fill-opacity:1;stroke-width:0.519269"
         id="path35" /><path
         d="m 199.07616,134.14375 v 30.42795 h -9.45438 -15.11267 c -0.75803,0.0452 -1.51515,0.10469 -2.27091,0.17869 -0.43427,0.0991 -0.86743,0.20294 -1.29938,0.31166 -2.4154,0.42509 -4.80244,0.99811 -7.1476,1.71583 l 7.41564,21.76219 c 1.1683,-0.41999 2.35711,-0.78065 3.56184,-1.08058 2.34728,-0.46502 4.7343,-0.70016 7.1272,-0.70209 l 0.057,-0.005 c 0.0575,0.001 0.11491,0.004 0.17235,0.005 h 16.95093 v 4.23931 64.98617 0.93074 h 0.34472 v 24.1351 2.09503 h 23.41893 V 267.22839 186.7574 h 5.73427 7.1708 v -22.1857 h -12.90507 v -30.42795 z m 19.24365,95.24247 c -0.0122,0.0768 -0.0246,0.1534 -0.0373,0.23004 -0.0122,0.0768 -0.026,0.1534 -0.0393,0.23005 0.0136,-0.0766 0.026,-0.15333 0.0387,-0.23005 0.0122,-0.0767 0.0256,-0.15333 0.038,-0.23004 z"
         style="fill:#ffca3a;fill-opacity:1;stroke-width:0.38425"
         id="path36" /><path
         d="m 280.85356,187.23367 a 54.695888,55.253202 0 0 0 -0.44603,-0.63949 54.695888,55.253202 0 0 0 -1.65182,-2.13793 54.695888,55.253202 0 0 0 -1.75314,-2.05354 54.695888,55.253202 0 0 0 -1.85161,-1.96348 54.695888,55.253202 0 0 0 -1.94379,-1.87062 54.695888,55.253202 0 0 0 -2.03312,-1.77142 54.695888,55.253202 0 0 0 -2.11613,-1.66801 54.695888,55.253202 0 0 0 -2.19494,-1.56177 54.695888,55.253202 0 0 0 -2.2681,-1.45063 54.695888,55.253202 0 0 0 -2.33633,-1.33665 54.695888,55.253202 0 0 0 -2.39754,-1.21988 54.695888,55.253202 0 0 0 -2.45454,-1.09888 54.695888,55.253202 0 0 0 -2.50447,-0.97575 54.695888,55.253202 0 0 0 -2.54949,-0.85054 54.695888,55.253202 0 0 0 -2.58678,-0.72391 54.695888,55.253202 0 0 0 -2.61985,-0.59376 54.695888,55.253202 0 0 0 -2.64518,-0.46361 54.695888,55.253202 0 0 0 -2.66416,-0.33205 54.695888,55.253202 0 0 0 -1.1425,-0.0851 v 22.79705 z"
         style="fill:#ffffff;fill-opacity:1;stroke-width:0.360193"
         id="path38" /></g></g></svg>
